<svg xmlns="http://www.w3.org/2000/svg" viewBox="0 0 1600 260"><defs><linearGradient id="g" x1="0" y1="0" x2="0" y2="1"><stop stop-color="#77856e" stop-opacity="0"/><stop offset="1" stop-color="#66755f" stop-opacity=".31"/></linearGradient></defs><path d="M0 190Q190 135 350 185T720 160T1080 184T1600 142V260H0Z" fill="url(#g)"/><g fill="#66755f" fill-opacity=".26"><path d="M80 260h22l-3-76 37 7-42-56 31 5-34-56-35 56 31-5-42 56 38-7z"/><path d="M225 260h25l-4-92 44 9-50-68 36 6-41-68-42 68 38-6-52 68 45-9z"/><path d="M420 260h20l-3-70 34 6-39-51 29 4-33-52-33 52 29-4-40 51 35-6z"/><path d="M690 260h27l-4-102 49 10-56-76 41 7-46-77-47 77 42-7-57 76 50-10z"/><path d="M930 260h22l-3-82 39 8-44-61 33 6-38-61-37 61 33-6-46 61 41-8z"/><path d="M1180 260h28l-4-108 51 10-58-80 43 8-49-82-49 82 44-8-60 80 53-10z"/><path d="M1450 260h23l-3-88 42 8-48-65 36 6-41-66-40 66 35-6-49 65 43-8z"/></g></svg>
