<svg xmlns="http://www.w3.org/2000/svg" viewBox="0 0 900 520"><defs><filter id="w"><feTurbulence baseFrequency=".018" numOctaves="3" seed="15"/><feDisplacementMap in="SourceGraphic" scale="9"/></filter></defs><g filter="url(#w)" stroke="#6d7d62" stroke-opacity=".35" fill="none" stroke-linecap="round"><path d="M675 420V105M675 210l-78-72M676 265l94-90M675 325l-112-75M677 365l112-72" stroke-width="8"/></g><g fill="#75866a" fill-opacity=".28"><ellipse cx="590" cy="132" rx="44" ry="18" transform="rotate(35 590 132)"/><ellipse cx="776" cy="171" rx="47" ry="19" transform="rotate(-40 776 171)"/><ellipse cx="555" cy="244" rx="43" ry="18" transform="rotate(28 555 244)"/><ellipse cx="795" cy="286" rx="43" ry="18" transform="rotate(-25 795 286)"/></g><path d="M575 390q100-55 205 0l-28 99H606z" fill="#a98b5c" fill-opacity=".22" stroke="#92784f" stroke-opacity=".28" stroke-width="7"/><path d="M545 392q130 38 267 0" fill="none" stroke="#8b7453" stroke-opacity=".30" stroke-width="9"/><path d="M0 460Q240 390 420 465T900 425V520H0Z" fill="#7d8a6f" fill-opacity=".11"/></svg>
