<svg xmlns="http://www.w3.org/2000/svg" viewBox="0 0 900 520"><defs><filter id="w"><feTurbulence baseFrequency=".016" numOctaves="3" seed="9"/><feDisplacementMap in="SourceGraphic" scale="10"/></filter></defs><path d="M0 390Q260 250 505 338T900 230V520H0Z" fill="#809071" fill-opacity=".12" filter="url(#w)"/><path d="M410 520C445 455 496 415 550 377s95-85 120-151" fill="none" stroke="#b29a6e" stroke-opacity=".35" stroke-width="42" stroke-linecap="round"/><g fill="#6d7664" fill-opacity=".34"><ellipse cx="478" cy="465" rx="38" ry="13" transform="rotate(-19 478 465)"/><ellipse cx="537" cy="412" rx="34" ry="12" transform="rotate(-22 537 412)"/><ellipse cx="587" cy="357" rx="31" ry="11" transform="rotate(-31 587 357)"/></g><g stroke="#52604f" stroke-opacity=".45" stroke-width="8" stroke-linecap="round"><path d="M675 250v98M675 281l-34 54M675 284l35 49M675 347l-28 70M675 347l30 68"/><path d="M640 250h72l-36-33z" fill="#7b6b50" fill-opacity=".34"/></g></svg>
